<svg xmlns="http://www.w3.org/2000/svg" width="1383" height="216" fill="none"><path fill="#fff" d="M1378.06 209.88c0-1.32 1.08-2.4 2.4-2.4s2.4 1.08 2.4 2.4-1.08 2.4-2.4 2.4-2.4-1.08-2.4-2.4m-7.41-3.76 3.28 1.84c-.72 1.28-1.76 2.4-2.84 3.08-1.36.88-3.16 1.28-4.96 1.28-2.24 0-4.08-.56-5.68-2.16s-2.48-3.92-2.48-6.44c0-2.6.92-5.12 2.68-6.92 1.4-1.4 3.24-2.28 5.64-2.28 2.68 0 4.4 1.16 5.4 2.2 2.16 2.24 2.36 5.36 2.36 7.12v.48h-12.08c.08 1.2.6 2.56 1.44 3.4.92.92 2.04 1.08 3 1.08 1.08 0 1.88-.24 2.68-.84.68-.52 1.2-1.2 1.56-1.84m-8.4-5h7.8c-.16-.92-.6-1.72-1.2-2.28-.52-.48-1.36-.96-2.64-.96-1.36 0-2.24.56-2.76 1.08-.56.52-1 1.32-1.2 2.16m-22.86 10.68v-16.84h3.92v1.56c1.68-1.88 3.6-2 4.56-2 3.12 0 4.44 1.56 4.96 2.28.64.92 1.04 2.08 1.04 4.68v10.32h-3.92v-9.36c0-4.28-1.6-4.4-3.08-4.4-1.76 0-3.56.24-3.56 5.68v8.08zm-8.82-16.84h3.92v16.84h-3.92zm-.56-6.96c0-1.44 1.08-2.52 2.52-2.52s2.52 1.08 2.52 2.52-1.08 2.52-2.52 2.52-2.52-1.08-2.52-2.52m-8.31-5.36h3.92v29.16h-3.92zm-14.08 22.68v-4.08h9.61v4.08zm-18.97 6.48v-16.84h3.92v1.56c1.68-1.88 3.6-2 4.56-2 3.12 0 4.44 1.56 4.96 2.28.64.92 1.04 2.08 1.04 4.68v10.32h-3.92v-9.36c0-4.28-1.6-4.4-3.08-4.4-1.76 0-3.56.24-3.56 5.68v8.08zm-13.05-17.28c5.08 0 9 3.68 9 8.88 0 5.16-3.92 8.92-9 8.92s-9-3.76-9-8.92c0-5.2 3.92-8.88 9-8.88m0 14.28c3.08 0 5-2.12 5-5.36 0-3.84-2.52-5.4-5-5.4s-5 1.56-5 5.4c0 3.24 1.92 5.36 5 5.36m-74.13 3-21-48.3h-85.5l-21.9 48.3h-33L1139.67 0l94.8 211.8zm-93.9-77.1h60.6l-29.7-67.8zm-161.808 1.2v-28.2h82.498v1.5c0 34.2-10.2 62.1-29.698 81-20.7 20.1-45.3 25.5-68.1 25.5-29.1 0-49.8-8.4-68.1-27.3-19.5-20.1-29.7-46.8-29.7-75.6 0-31.2 12.6-58.2 29.1-74.7 17.1-17.4 44.4-30 75.3-30 18 0 36.6 3.9 52.2 12.6 16.498 9.3 26.698 21 32.398 30l-24.298 17.1c-6-8.4-15-17.4-24.6-22.8-11.1-6.6-23.1-8.7-35.4-8.7-26.1 0-42.9 10.8-52.8 20.7-13.2 13.2-21.3 34.5-21.3 56.1 0 20.1 7.5 40.2 20.7 54.3 13.8 14.7 30.9 20.1 50.1 20.1 17.4 0 31.8-5.1 44.7-17.7 11.1-10.8 15.6-22.5 16.8-33.9zM699.75 8.1c60 0 104.1 45 104.1 103.8s-44.1 103.8-104.1 103.8-104.1-45-104.1-103.8S639.75 8.1 699.75 8.1m0 179.4c42.9 0 73.5-31.2 73.5-75.6s-30.6-75.6-73.5-75.6-73.5 31.2-73.5 75.6 30.6 75.6 73.5 75.6m-205.73 24.3v-86.4l-65.7-113.7h34.8l46.2 80.1 46.2-80.1h34.8l-65.7 113.7v86.4zM186.012 11.7h30.6v120.6c0 10.8.3 24 6.3 34.5 6 10.2 19.5 20.7 37.2 20.7s31.2-10.5 37.2-20.7c6-10.5 6.3-23.7 6.3-34.5V11.7h30.6v128.7c0 15.9-3.3 35.1-18.6 51.9-10.5 11.4-28.2 23.4-55.5 23.4s-45-12-55.5-23.4c-15.3-16.8-18.6-36-18.6-51.9zM65.7 211.8v-86.4L0 11.7h34.8L81 91.8l46.2-80.1H162L96.3 125.4v86.4z"/></svg>