<svg xmlns="http://www.w3.org/2000/svg" width="232" height="66" fill="none"><path fill="#fff" d="m227.086 62.032-2.8-6.44h-11.4l-2.92 6.44h-4.4l13.28-28.24 12.64 28.24zm-12.52-10.28h8.08l-3.96-9.04zm-21.574.16v-3.76h11v.2c0 4.56-1.36 8.28-3.96 10.8-2.76 2.68-6.04 3.4-9.08 3.4-3.88 0-6.64-1.12-9.08-3.64-2.6-2.68-3.96-6.24-3.96-10.08 0-4.16 1.68-7.76 3.88-9.96 2.28-2.32 5.92-4 10.04-4 2.4 0 4.88.52 6.96 1.68 2.2 1.24 3.56 2.8 4.32 4l-3.24 2.28c-.8-1.12-2-2.32-3.28-3.04-1.48-.88-3.08-1.16-4.72-1.16-3.48 0-5.72 1.44-7.04 2.76-1.76 1.76-2.84 4.6-2.84 7.48 0 2.68 1 5.36 2.76 7.24 1.84 1.96 4.12 2.68 6.68 2.68 2.32 0 4.24-.68 5.96-2.36 1.48-1.44 2.08-3 2.24-4.52zm-32.801-17.04c8 0 13.88 6 13.88 13.84s-5.88 13.84-13.88 13.84-13.88-6-13.88-13.84 5.88-13.84 13.88-13.84m0 23.92c5.72 0 9.8-4.16 9.8-10.08s-4.08-10.08-9.8-10.08-9.8 4.16-9.8 10.08 4.08 10.08 9.8 10.08m-27.431 3.24v-11.52L124 35.352h4.64l6.16 10.68 6.16-10.68h4.64l-8.76 15.16v11.52zM59.524 0h9.792v38.592c0 3.456.096 7.68 2.016 11.04 1.92 3.264 6.24 6.624 11.904 6.624s9.984-3.36 11.904-6.624c1.92-3.36 2.016-7.584 2.016-11.04V0h9.792v41.184c0 5.088-1.056 11.232-5.952 16.608-3.36 3.648-9.024 7.488-17.76 7.488s-14.4-3.84-17.76-7.488c-4.896-5.376-5.952-11.52-5.952-16.608zm-38.5 64.032V36.384L0 0h11.136L25.92 25.632 40.704 0H51.84L30.816 36.384v27.648zM124 3.032h33v5h-33zm0 14h33v5h-33z"/></svg>